<?xml version="1.0" encoding="UTF-8"?><svg xmlns="http://www.w3.org/2000/svg" viewBox="0 0 265.69 246.25"><defs><style>.cls-1{fill:#7c943a;}.cls-1,.cls-2,.cls-3,.cls-4,.cls-5,.cls-6,.cls-7,.cls-8,.cls-9,.cls-10,.cls-11,.cls-12,.cls-13,.cls-14,.cls-15,.cls-16{stroke-width:0px;}.cls-2{fill:#814c2e;}.cls-3{fill:#d15e00;}.cls-17{isolation:isolate;}.cls-4{fill:#683c1d;}.cls-5{fill:#7e9e2c;}.cls-6{fill:#e36b00;}.cls-7{fill:#d9cccc;}.cls-7,.cls-10{mix-blend-mode:multiply;}.cls-8{fill:#e74641;}.cls-9{fill:#e7807d;}.cls-10{fill:#c9bdbd;}.cls-11{fill:#b3c948;}.cls-12{fill:#fff;opacity:.59;}.cls-13{fill:#ecc54a;}.cls-14{fill:#455218;}.cls-15{fill:#99c12a;}.cls-16{fill:#c74600;}</style></defs><g class="cls-17"><g id="Layer_2"><g id="OBJECTS"><path class="cls-14" d="M215.59,22.73c3.58,1.15,17.8,9.29,21.02,10.38-3.27,7.3-4.64,13.05-11.16,21.86,8.79-8.28,11.28-12.75,15.74-20.29,2.07.7,5.71,1.91,7.78,2.61-10.22,14.41-27.06,33.57-29.76,33.57-.06,0-.11,0-.16-.03-1.38-.58-2.43-2.17-2.9-4.08-.65.34-1.41.49-2.21.49-2.57,0-5.5-1.54-6.21-3.09-.4-.88,9.05-27.45,7.85-41.41M215.59,17.06c-1.27,0-2.52.42-3.53,1.24-1.48,1.18-2.28,3.03-2.12,4.92.79,9.26-4.01,26.03-6.32,34.08-1.71,5.98-2.02,7.06-1.05,9.2,1.73,3.8,6.36,6,10.27,6.35,1.08,1.44,2.44,2.54,4.01,3.2.75.31,1.54.47,2.36.47h0c2.73,0,5.01-1.68,8.27-4.79,2.18-2.08,4.96-5.02,8.04-8.51,6.35-7.19,13.11-15.66,18.07-22.66,1.04-1.46,1.32-3.33.76-5.04-.56-1.71-1.89-3.05-3.59-3.62l-2.56-.86c-1.82-.61-3.85-1.29-5.21-1.74-.6-.2-1.21-.3-1.81-.3-.21,0-.43.01-.64.04-.6-.58-1.32-1.02-2.13-1.3-1.12-.38-5.81-2.85-8.92-4.48-6.12-3.22-10-5.22-12.19-5.92-.57-.18-1.15-.27-1.73-.27h0Z"/><path class="cls-15" d="M241.19,34.66c-4.45,7.55-6.94,12.01-15.74,20.29,6.52-8.8,7.89-14.56,11.16-21.86-3.22-1.09-17.44-9.23-21.02-10.38,1.19,13.96-8.26,40.53-7.85,41.41.93,2.03,5.67,4.04,8.42,2.6.48,1.91,1.52,3.5,2.9,4.08,2.1.89,19.47-18.81,29.92-33.54-2.07-.69-5.71-1.91-7.78-2.61Z"/><path class="cls-1" d="M241.19,34.66c-4.45,7.54-6.94,12.01-15.74,20.29,6.52-8.8,7.89-14.56,11.16-21.86-.61-.21-1.61-.66-2.86-1.28-.23.32-.47.64-.71.95-1.57,6.7-2.88,13.03-10.78,16.4-3.5,1.49-7.23,1.93-10.93,1.58-1.95,7.35-3.78,12.99-3.59,13.38.93,2.03,5.67,4.04,8.42,2.6.48,1.91,1.52,3.5,2.9,4.08,2.1.89,19.47-18.81,29.92-33.54-2.07-.69-5.71-1.91-7.78-2.61Z"/><path class="cls-6" d="M202.7,122.34c-2.72,5.39-6.59,9.99-10.59,15.64-3.66,5.17-7.37,11.66-11.78,16.91-7.98,9.49-15.68,17.84-23.26,24.75-2.39,2.17-13.96,10.51-14.52.59-.21-3.67,1.89-7.22,3.23-10.13,2.24-4.89,4.85-9.71,7.03-14.95,2.15-5.17,3.83-10.67,5.87-15.98,2.17-5.68,5.3-10.84,7.64-16.16,4.34-9.86,8.56-18.99,12.31-29.29,1.86-5.12,5.32-9.2,7.62-14.35,2.03-4.55,2.51-9.98,5.75-13.91,5.84-7.07,18.88-8.43,26.88-4.14,5.63,3.02,8.21,8.79,8.94,14.95.71,5.94-2.22,9.75-5.56,14.31-4.08,5.55-6.44,12.73-10.08,18.55-3.18,5.09-7.17,8.66-9.48,13.22Z"/><path class="cls-14" d="M208.27,58.88c3.81,0,7.57.81,10.59,2.44,5.65,3.03,8.21,8.8,8.94,14.95.71,5.95-2.21,9.75-5.55,14.3-4.09,5.56-6.45,12.74-10.09,18.55-3.19,5.09-7.18,8.66-9.47,13.22-2.71,5.4-6.58,10-10.58,15.65-.54.77-1.09,1.56-1.63,2.39-.71,1.05-1.44,2.14-2.16,3.25-2.48,3.81-5.08,7.8-7.99,11.26-4.21,5.01-8.34,9.7-12.42,14.03-.49.51-.96,1.02-1.44,1.51-3.16,3.32-6.29,6.4-9.4,9.23-1.54,1.39-6.88,5.34-10.64,5.34-2.09,0-3.69-1.22-3.89-4.76-.2-3.68,1.89-7.23,3.23-10.13,2.24-4.87,4.85-9.71,7.03-14.94.55-1.34,1.08-2.69,1.59-4.07.12-.33.24-.65.37-.99,1.31-3.62,2.52-7.32,3.9-10.92,2.19-5.69,5.3-10.85,7.65-16.16,2.02-4.6,4.03-9.05,5.95-13.52.45-.97.85-1.95,1.28-2.94,1.76-4.15,3.46-8.38,5.09-12.83,1.87-5.14,5.31-9.21,7.61-14.36,2.04-4.55,2.51-9.98,5.75-13.9,3.62-4.4,10.03-6.58,16.27-6.58M208.27,53.21v5.67-5.67h0c-8.47,0-16.19,3.23-20.65,8.65-2.79,3.38-3.96,7.26-5,10.69-.49,1.64-.96,3.18-1.55,4.5-.89,1.99-2.02,3.86-3.21,5.85-1.64,2.72-3.33,5.54-4.55,8.89-1.44,3.94-3.02,7.93-4.98,12.56l-.32.76c-.29.68-.58,1.36-.89,2.04-.02.04-.04.08-.05.12-1.22,2.85-2.46,5.65-3.78,8.61-.71,1.61-1.43,3.23-2.15,4.87-.9,2.05-1.95,4.1-3.05,6.27-1.63,3.21-3.31,6.52-4.7,10.13-.88,2.3-1.69,4.62-2.48,6.87-.48,1.37-.95,2.73-1.44,4.08-.14.36-.27.71-.4,1.07-.45,1.23-.94,2.48-1.5,3.83-1.27,3.05-2.76,6.09-4.2,9.02-.91,1.86-1.86,3.79-2.74,5.71-.19.42-.41.86-.63,1.32-1.42,2.93-3.36,6.93-3.11,11.5.42,7.47,5.41,10.11,9.55,10.11,6.83,0,14.13-6.53,14.44-6.81,3.12-2.84,6.37-6.03,9.68-9.5.31-.32.62-.64.93-.97l.52-.55c4.01-4.25,8.15-8.92,12.67-14.3,3.18-3.78,5.95-8.05,8.4-11.82.7-1.07,1.42-2.14,2.11-3.17.01-.02.03-.04.04-.06.5-.77,1.03-1.53,1.54-2.25,1.04-1.47,2.11-2.92,3.14-4.32,2.91-3.95,5.67-7.68,7.85-12.03.99-1.97,2.51-3.85,4.27-6.04,1.56-1.94,3.33-4.14,4.94-6.72,1.75-2.79,3.19-5.78,4.58-8.67,1.68-3.5,3.27-6.81,5.27-9.52l.26-.35c3.43-4.67,7.32-9.96,6.36-17.99-1.07-9.01-5.18-15.67-11.89-19.27-3.79-2.04-8.38-3.11-13.27-3.11h0Z"/><path class="cls-6" d="M223.66,88.63c-.45.64-.92,1.28-1.4,1.94-.76,1.03-1.45,2.12-2.11,3.25-2.9,4.93-5.02,10.58-7.97,15.31-3.18,5.08-7.18,8.66-9.48,13.21-.4.8-.83,1.58-1.28,2.36-1.02,1.76-2.16,3.46-3.38,5.17-1.84,2.6-3.86,5.22-5.92,8.13-.53.77-1.08,1.57-1.62,2.39-.7,1.05-1.44,2.14-2.16,3.25-2.47,3.8-5.09,7.8-7.99,11.25-4.21,5.02-8.35,9.7-12.43,14.03-.49.5-.96,1-1.43,1.51-3.16,3.32-6.29,6.39-9.4,9.22-2.39,2.16-13.96,10.51-14.53.59-.21-3.69,1.89-7.23,3.22-10.14,2.25-4.88,4.85-9.71,7.02-14.93.55-1.34,1.1-2.69,1.6-4.07.11-.33.24-.65.37-.99,1.31-3.62,2.51-7.31,3.9-10.92,2.19-5.69,5.3-10.85,7.65-16.15,2.03-4.6,4.04-9.06,5.95-13.52.45-.97.85-1.95,1.28-2.95,1.43-3.38,2.83-6.8,4.17-10.37.32-.82.62-1.64.92-2.46.48-1.32,1.06-2.57,1.7-3.78,1.86-3.51,4.2-6.74,5.91-10.58,2.04-4.55,2.52-9.98,5.76-13.9,5.82-7.09,18.88-8.43,26.86-4.15,5.65,3.02,8.21,8.8,8.95,14.95.61,5.08-1.45,8.61-4.15,12.36Z"/><path class="cls-3" d="M226.9,71.79c-.23.58-.44,1.1-.62,1.52-1.87,4.16-3.55,8.41-5.43,12.56-3.55,7.85-9.04,15.89-15.81,21.27-6.92,5.49-17.24,8.63-25.7,4.97-2.47-1.07-4.54-2.61-6.27-4.46-.26.62-.53,1.24-.81,1.86-1.91,4.46-3.92,8.92-5.95,13.52-2.35,5.31-5.46,10.46-7.65,16.15-1.39,3.61-2.59,7.31-3.9,10.92-.13.34-.25.66-.37.99-.51,1.38-1.05,2.73-1.6,4.07-2.17,5.23-4.77,10.06-7.02,14.93-1.34,2.91-3.43,6.45-3.23,10.14.56,9.92,12.14,1.57,14.53-.59,3.11-2.84,6.24-5.91,9.4-9.22.47-.5.95-1.01,1.43-1.51,4.08-4.33,8.22-9.01,12.43-14.03,2.91-3.46,5.52-7.45,7.99-11.25.72-1.11,1.46-2.21,2.16-3.25.54-.83,1.09-1.62,1.62-2.39,2.06-2.91,4.08-5.52,5.92-8.13,1.22-1.71,2.36-3.4,3.38-5.17.45-.78.88-1.56,1.28-2.36,2.3-4.56,6.3-8.13,9.48-13.21,2.95-4.73,5.08-10.37,7.97-15.31.66-1.12,1.36-2.21,2.11-3.25.48-.66.95-1.3,1.4-1.94,2.7-3.75,4.76-7.28,4.15-12.36-.18-1.53-.48-3.04-.91-4.49Z"/><path class="cls-16" d="M220.14,93.81c-.73-.34-1.46-.72-2.17-1.17-6.78-4.31-9.33-9.77-9.33-9.77,4.91,1.29,7.66,1.74,12.8,4.5.8.42,1.52.85,2.21,1.26l-3.51,5.18Z"/><path class="cls-16" d="M195.82,101.08c-.6-.03-9-.59-18.11-4.89.32-.82.62-1.64.92-2.46.48-1.32,1.06-2.57,1.7-3.78.21.09.43.16.65.25,5.24,2.04,9.24,6.02,14.84,10.88Z"/><path class="cls-16" d="M201.41,124.69c-1.02,1.76-2.16,3.46-3.38,5.17-4.88-3.08-8.52-6.76-12.5-10.9,0,0,6.05,0,15.89,5.74Z"/><path class="cls-14" d="M157.44,139.71c-.69,1.95-1.47,3.88-2.31,5.8,7.44,3.95,17.11,8.96,17.11,8.96,0,0-6.37-8.43-14.8-14.75Z"/><path class="cls-14" d="M234.82,27.79s-2.19,14.74-9.37,27.17c0,0,11.13-6.74,19.13-22.77l-9.76-4.39Z"/><path class="cls-14" d="M69.1,133.95s-.06,2.04.73,6.72c.54,3.2.61,10.3,5.49,14.53,2.97,2.57,9.75,7.42,14.62,10.83-3.11,5.83-6.99,11.22-11.75,16.1-4.11-3.55-9.38-7.85-12.73-9.7-5.31-2.94-9.76-3.83-13.6-3.83-.61,0-1.2.02-1.77.06-4.22.29-14.25,2.65-14.25,2.65l1.68-5.96s10.28-1.81,15.09-1.81c.24,0,.46,0,.67.01.04,0,.08,0,.12,0,4.03,0-12.16-10.52-12.16-10.52l2.41-6.34s9.24,8.15,11.72,8.15c.19,0,.34-.05.44-.15,1.46-1.43-5.56-8.6-5.56-8.6l4.64-5.78s4.47,8.81,8.65,9.71c.32.07.61.1.86.1,3.02,0,1.3-4.76.24-8.72-1.15-4.3-2.45-6.87-2.45-6.87l6.91-.58M69.15,128.27c-.17,0-.35,0-.52.02l-6.91.58c-1.88.16-3.55,1.24-4.47,2.88-.54.97-.78,2.05-.71,3.12-.34-.1-.7-.18-1.06-.21-.2-.02-.39-.03-.59-.03-1.71,0-3.34.77-4.42,2.12l-4.02,5c-.86-.49-1.82-.74-2.81-.74-.45,0-.91.05-1.36.17-1.81.45-3.28,1.75-3.94,3.49l-2.41,6.34c-.95,2.49-.02,5.31,2.21,6.76.67.44,1.37.9,2.07,1.37-1.89.29-3.3.54-3.68.61-2.14.38-3.88,1.95-4.47,4.05l-1.68,5.96c-.54,1.93-.03,4.01,1.36,5.46,1.08,1.13,2.57,1.75,4.09,1.75.43,0,.87-.05,1.3-.15,2.67-.63,10.27-2.3,13.34-2.51.47-.03.93-.05,1.39-.05,3.57,0,7.01.99,10.85,3.12,1.34.74,4.66,2.91,11.77,9.04,1.07.92,2.39,1.37,3.7,1.37,1.48,0,2.95-.57,4.06-1.71,4.99-5.11,9.26-10.96,12.7-17.39,1.35-2.53.6-5.67-1.75-7.32-6.99-4.89-12.02-8.61-14.16-10.47-2.47-2.14-2.97-6.21-3.34-9.18-.09-.71-.17-1.39-.28-2.02-.61-3.59-.65-5.37-.65-5.63.08-1.62-.55-3.14-1.72-4.27-1.05-1.02-2.45-1.54-3.91-1.54h0ZM69.1,139.62h0,0Z"/><path class="cls-5" d="M65.48,172.42c3.34,1.85,8.61,6.16,12.73,9.7,4.77-4.88,8.64-10.27,11.75-16.1-4.87-3.41-11.66-8.26-14.62-10.83-4.88-4.23-4.95-11.33-5.49-14.53-.79-4.68-.73-6.72-.73-6.72l-6.91.58s1.3,2.58,2.45,6.87c1.15,4.29,3.08,9.52-1.1,8.62-4.18-.9-8.65-9.71-8.65-9.71l-4.64,5.78s7.01,7.17,5.56,8.6c-1.46,1.43-12.16-8-12.16-8l-2.41,6.34s16.49,10.71,12.05,10.51-15.76,1.8-15.76,1.8l-1.68,5.96s10.03-2.36,14.25-2.65c4.22-.29,9.22.36,15.37,3.77Z"/><path class="cls-14" d="M44.33,109.46c5.83,0,10.42,5.04,10.42,5.04,1.53-2.95,3.95-4.17,6.49-4.17,2.4,0,4.89,1.09,6.8,2.86,4.94,4.55,5.72,12.93,1.7,18.31-2.59,3.47-6.94,5.38-11.25,5.38-2.38,0-4.74-.58-6.8-1.81-.71,5.12-3.73,9.98-8.26,12.48-1.2.66-2.5,1.14-3.85,1.43.04.06.09.1.13.16,2.26,3.12,2.18,7.67.38,11.08-1.93,3.65-4.89,6.46-8.84,6.46-.3,0-.6-.02-.91-.05,1.07,2.24-.17,6.78-1.65,8.45-1.68,1.9-5.45,2.93-8.55,2.93-.92,0-1.79-.09-2.52-.28-3.19-.82-5.85-2.63-7.92-5.19-2.51-3.11-4.42-6.78-3.98-10.75.43-3.97,2.77-8.72,6.73-9.24-4.76-3.4-4.4-9.33-2.41-13,.9-1.66,2.28-2.75,3.9-3.36-1.29-3.68-1.2-7.86.19-11.09,2.33-5.39,7.42-9.88,13.23-9.88,2.21,0,4.52.65,6.83,2.15.86-2.63,2.63-5.27,5.45-6.74,1.61-.84,3.19-1.17,4.69-1.17M44.33,103.79s0,0,0,0c-2.54,0-5,.61-7.31,1.82-2.07,1.08-3.88,2.62-5.33,4.5-1.41-.37-2.86-.55-4.32-.55-7.59,0-14.99,5.34-18.43,13.3-1.39,3.22-1.86,7.03-1.39,10.75-.99.93-1.82,2.02-2.49,3.25-2.27,4.19-2.86,9.64-.82,14.3-2.38,2.8-3.77,6.54-4.15,10.01-.54,4.95,1.21,9.98,5.21,14.93,2.88,3.57,6.65,6.03,10.92,7.12,1.18.3,2.5.46,3.93.46,3.92,0,9.62-1.27,12.79-4.84,1.41-1.59,2.71-4.39,3.23-7.39,3.6-1.38,6.69-4.31,8.95-8.59,1.77-3.35,2.34-7.2,1.76-10.76,3.75-2.27,6.73-5.72,8.57-9.8,1,.15,2.01.23,3.04.23,6.31,0,12.21-2.86,15.79-7.66,5.77-7.73,4.69-19.34-2.41-25.88-3.01-2.77-6.88-4.35-10.64-4.35-2.63,0-5.04.75-7.09,2.13-2.53-1.57-5.91-3-9.82-3h0Z"/><path class="cls-11" d="M54.75,114.5s-7.25-7.97-15.11-3.87c-2.82,1.47-4.58,4.11-5.45,6.74-8.36-5.44-16.84.29-20.06,7.73-1.39,3.22-1.48,7.41-.19,11.09-1.61.61-3,1.7-3.9,3.36-1.98,3.67-2.35,9.59,2.41,13-3.96.52-6.3,5.27-6.73,9.24-.43,3.97,1.48,7.64,3.98,10.75,2.07,2.56,4.73,4.38,7.92,5.19,3.19.82,8.88-.19,11.06-2.65,1.48-1.67,2.72-6.21,1.65-8.45,4.42.47,7.68-2.48,9.75-6.41,1.8-3.41,1.88-7.96-.38-11.08-.04-.06-.09-.11-.13-.16,1.34-.29,2.65-.76,3.85-1.43,4.53-2.5,7.55-7.36,8.26-12.48,5.77,3.45,14.02,1.81,18.04-3.57,4.02-5.38,3.24-13.76-1.7-18.31-3.93-3.62-10.31-4.43-13.29,1.32Z"/><path class="cls-1" d="M26.91,148.09c2.31,6.36,1.65,12.6-2.05,17.13-3.93,4.8-16.26,4.07-19.18-2.18.04,3.49,1.79,6.72,4.03,9.49,2.07,2.56,4.73,4.38,7.92,5.19s8.88-.19,11.06-2.65c1.48-1.67,2.72-6.21,1.65-8.45,4.42.47,7.68-2.48,9.75-6.41,1.4-2.66,1.74-6.01.76-8.83-4.88-.02-9.62-1-13.95-3.29Z"/><path class="cls-14" d="M39.6,148.98c-1.84.28-7.28,1.47-12.1-.47,0,0,5.56,8.25,13.71,6.48,8.15-1.77,8.48-7.7,8.48-7.7,0,0-8.15,1.39-10.09,1.68Z"/><path class="cls-14" d="M34.2,117.37s5.61,3.37,7.25,6.53c0,0-.25-9.92-8.15-13.84l.9,7.31Z"/><path class="cls-14" d="M7.53,170.01s-3.07-7.98,1.51-12.32c2.47-2.34,5.91-3.06,9.39-2.1,0,0-2.6-4.68-7.49-4.7-6.69-.03-8.67,6.62-8.67,6.62l5.26,12.52Z"/><path class="cls-14" d="M51.7,135.06c.22-3.23-.76-7.74-1.96-11.05,0,0,8.73,2.64,8.32,15.16l-6.37-4.11Z"/><path class="cls-14" d="M13.95,136.19s2.26,5.38,5.72,6.23c0,0-10.43,2.58-12.53-6.42l6.81.19Z"/><path class="cls-8" d="M257.69,119.22c6.8,27.93.2,53.76-38.23,65.93-39.07,12.38-58.61-4.35-69.38-30.73-.54-1.32-.19-4.45.98-4.83,29.08-9.38,76.15-24.57,102.79-33.16,1.13-.36,3.54,1.55,3.84,2.78Z"/><path class="cls-14" d="M254.17,116.39c1.21,0,3.25,1.7,3.53,2.83,6.8,27.93.2,53.76-38.23,65.93-9,2.85-16.97,4.16-24.02,4.16-23.59,0-37.07-14.58-45.36-34.88-.54-1.32-.19-4.45.98-4.83,29.08-9.38,76.15-24.57,102.79-33.16.1-.03.2-.05.31-.05M254.17,110.72h0c-.71,0-1.4.11-2.05.32l-102.79,33.16c-1.81.58-3.3,1.95-4.17,3.84-1.17,2.52-1.31,6.11-.32,8.53,4.88,11.95,10.94,20.86,18.54,27.25,8.81,7.4,19.59,11.16,32.06,11.16,7.81,0,16.47-1.49,25.74-4.42,36.27-11.49,50.8-36.62,42.03-72.68-.9-3.68-5.29-7.16-9.04-7.16h0Z"/><path class="cls-9" d="M243.08,128.03c5.37,18.99-1.21,37.84-27.18,46.07-26.55,8.41-42.23-2.95-48.98-21.5l76.16-24.57Z"/><path class="cls-8" d="M210.14,148c2.81,4.71,7.23,12.04,7.43,17.1s-5.34,5.63-6.94,2.29c-2.3-4.81-3.4-14.8-3.66-18.27-.27-3.47.73-5.19,3.16-1.12Z"/><path class="cls-8" d="M200.34,151.9c.69,4.94,1.79,12.63-.04,16.87-1.84,4.23-7.14,2.59-7.27-.76-.18-4.82,2.82-13.44,3.96-16.39s2.75-3.98,3.34.29Z"/><path class="cls-8" d="M191.78,153.67c-2.21,3.32-5.63,8.52-9.06,9.9-3.43,1.39-5.91-2.78-4.2-4.82,2.47-2.94,8.98-6.21,11.29-7.26,2.31-1.05,3.88-.69,1.97,2.18Z"/><path class="cls-8" d="M215.52,147c2.33,4.41,5.93,11.3,9.89,13.66s7.31-2.08,5.45-4.86c-2.67-4.02-10.14-9.26-12.8-10.98s-4.56-1.63-2.55,2.19Z"/><path class="cls-8" d="M223.5,143.44c3.73,1.41,9.54,3.62,13.14,2.74,3.59-.88,3.18-5.71.59-6.37-3.72-.95-10.92.21-13.41.7-2.49.5-3.55,1.7-.32,2.92Z"/><path class="cls-10" d="M229.18,167.94c-6.83.17-13.47-1.03-19.46-4.35-17.94-9.92-17.41-23.9-18.82-26.85-14.49,4.67-28.52,9.2-39.83,12.85-1.17.38-1.52,3.52-.98,4.83,10.77,26.38,30.31,43.1,69.38,30.73,23.95-7.59,35.53-20.48,39.22-35.88-5.52,9.57-15.62,18.31-29.5,18.67Z"/><path class="cls-14" d="M105.71,60.32c.51,3.58-8.39,5.91-12.02,5.65-3.03-.25-1.65-5.12-1.8-8.22-.2-4.16-4.12-13.77-6.06-19.42-1.56-4.53,3.88-4.78,5.18-3.86.02,0,.02.01.02.01,2.15,1.59,4.32,9.68,6.25,15.33,1.94,5.65,7.92,6.95,8.42,10.51Z"/><path class="cls-14" d="M105.8,57.62c6.37,0,11.61,2.5,15.63,5.78,1.23.98,2.33,2.05,3.32,3.13,7.67,8.39,9.59,11.26,30.01,30.28,19.4,18.08,42.75,48.08,30.09,75.99-10.01,22.03-29.46,30.97-37.51,32.92-3.95,1.74-11.51,3.84-20.86,3.84-8.6,0-18.72-1.78-28.93-7.27-27.01-14.52-25.45-52.32-22.15-78.68.35-2.86.68-5.48.97-7.88,2.17-17.68,2.76-24.06,3.48-34.04.29-3.96,3.33-17.9,17.08-22.54,3.16-1.07,6.12-1.53,8.87-1.53M105.8,51.95h0c-3.49,0-7.09.62-10.69,1.83-15.35,5.18-20.39,20.26-20.92,27.51-.72,10.09-1.32,16.38-3.45,33.75-.21,1.74-.44,3.58-.69,5.55l-.29,2.32c-1.47,11.77-3.1,29.3-.24,45.46,3.28,18.54,11.8,31.63,25.34,38.91,9.81,5.27,20.45,7.94,31.61,7.94s19.83-2.93,22.67-4.12c10.55-2.72,30.51-13.18,40.86-35.96,14.77-32.56-13.32-65.66-31.39-82.49-16.88-15.72-21.01-20.31-26.24-26.13-1.07-1.19-2.19-2.43-3.46-3.83-1.28-1.4-2.57-2.62-3.94-3.72-5.65-4.61-12.29-7.04-19.19-7.04h0Z"/><path class="cls-5" d="M184.85,172.8c-10.01,22.03-29.46,30.97-37.51,32.92-7.59,3.34-28.48,8.02-49.79-3.43-27.01-14.52-25.45-52.32-22.15-78.68.35-2.86.68-5.48.97-7.88,2.17-17.68,2.76-24.06,3.48-34.04.29-3.96,3.33-17.9,17.08-22.54,10.5-3.55,18.75-.45,24.5,4.25,1.23.98,2.33,2.05,3.32,3.13,7.67,8.39,9.59,11.26,30.01,30.28,19.4,18.08,42.75,48.08,30.09,75.99Z"/><path class="cls-13" d="M173.74,170.9c-7.49,18.46-22.75,25.64-29.1,27.12-5.96,2.67-22.44,6.21-39.58-3.93-21.73-12.85-21.27-44.86-19.19-67.12.22-2.42.43-4.63.61-6.66,1.36-14.93,1.7-20.33,2.06-28.77.15-3.35,2.28-15.1,13.09-18.75,8.26-2.79,14.87,0,19.53,4.1.99.86,1.89,1.78,2.7,2.72,6.26,7.27,7.84,9.73,24.44,26.27,15.77,15.72,34.92,41.62,25.44,65.01Z"/><path class="cls-4" d="M153.72,140.62c5.72,15.11-.33,31.4-13.5,36.39-13.17,4.98-28.48-3.22-34.2-18.34-6.82-18.02-3.72-42.08,9.45-47.06,4.71-1.78,10.07-.89,15.34,1.84,9.43,4.87,18.53,15.61,22.91,27.18Z"/><path class="cls-2" d="M111,118.89c-3.87,6.26-5.15,21.96-.85,34.23,4.31,12.27,13.94,13.71,21.93,11.71,7.99-2.01,12.78-17.72,7.96-28.78-7.62-17.46-21.11-29.99-29.04-17.15Z"/><path class="cls-12" d="M115.28,125.4c-4.89,4.85-4.78,18.4-.38,23.56,4.3,5.05,5.36-1.89,6.09-6.1.52-3.02,2.15-24.5-5.48-17.67-.08.07-.15.14-.23.22Z"/><path class="cls-7" d="M142.54,184.99c-37.56,6.74-65.7-24.82-68.89-33.76.37,20.51,5.52,41.19,23.9,51.07,21.31,11.45,42.2,6.77,49.79,3.43,8.05-1.95,27.5-10.89,37.51-32.92,4.48-9.87,4.44-20,1.68-29.78-8.81,30.23-14.29,36.63-43.99,41.96Z"/><path class="cls-14" d="M109.97,239.15h10.1c2.18,3,4.37,7.09,6.98,7.09,2.61,0,4.28-2.06,7.45-5.07,0,0,9.51,3.2,13.15,1.39l-1.46-15.51-36.23-3.37v15.46Z"/><path class="cls-14" d="M191.79,177.7c6.03,0,12,.54,17.67,1.56,35.81,6.49,42.74,12.88,42.74,12.88,0,0-32.37,24.44-55.53,38.31-10.79,6.46-23.73,8.19-34.47,8.19-12.33,0-21.76-2.27-21.76-2.27,21.8-30.02,56.89-38.1,56.89-38.1-1.39-.1-2.78-.15-4.15-.15-37.55,0-66.1,37.65-66.1,37.65,0-.3.02-.59.02-.89-.59-1.65-16.23-33.38-41.74-35.4,0,0,19.65,9.38,30.47,33.62,0,0-3.73.91-9.01.91-6.65,0-15.76-1.45-23-7.99-13.01-11.73-30.36-34.59-30.36-34.59,0,0,6.85-8.2,29.43-9.56.78-.05,1.57-.07,2.36-.07,20.07,0,41.68,15.1,42.25,39.38,3.94-30.64,34.77-43.5,64.3-43.5M191.79,172.03c-16.75,0-32.61,3.92-44.63,11.05-8.23,4.87-14.6,11.15-18.95,18.56-2.64-5.07-6.29-9.66-10.85-13.55-8.89-7.59-20.6-11.94-32.12-11.94-.9,0-1.81.03-2.71.08-24.32,1.46-32.58,10.55-33.44,11.58-1.69,2.03-1.76,4.96-.16,7.06.72.95,17.83,23.42,31.08,35.37,8.65,7.81,19.35,9.45,26.8,9.45,5.8,0,9.91-.97,10.36-1.08,1.63-.4,3-1.5,3.74-3.01.04-.07.07-.14.1-.22.16.3.29.56.41.77.15,2.29,1.68,4.28,3.88,5.01.58.19,1.18.28,1.77.28,1.74,0,3.43-.8,4.52-2.24.05-.07,1.2-1.55,3.27-3.87-.19.99-.11,2.03.25,3.01.65,1.78,2.15,3.11,3.99,3.55.41.1,10.24,2.43,23.09,2.43,14.84,0,27.42-3.03,37.39-9,23.16-13.87,54.7-37.65,56.04-38.65,1.34-1.01,2.16-2.57,2.25-4.24.08-1.68-.58-3.31-1.82-4.45-1.36-1.25-9.94-7.84-45.57-14.3-6.06-1.1-12.35-1.65-18.68-1.65h0Z"/><path class="cls-11" d="M82.87,181.89c20.7-1.25,44.02,14.07,44.62,39.31,4.75-36.89,48.47-48,81.98-41.93,35.81,6.49,42.74,12.88,42.74,12.88,0,0-32.37,24.44-55.53,38.31-23.16,13.88-58.34,5.92-58.34,5.92,21.8-30.02,59-38.1,59-38.1-39.58-2.95-70.25,38.55-70.25,38.55,0-.3.02.46.02.16-.59-1.65-14.2-32.56-41.74-37.51,0,0,20.7,9.38,31.52,33.62,0,0-20.06,4.66-33.06-7.07-13.01-11.73-30.36-34.59-30.36-34.59,0,0,6.85-8.2,29.43-9.56Z"/><path class="cls-1" d="M215.96,212.54c-16.26,10.98-34.02,20.06-54.24,18.73-.95-.06-1.67-.89-1.42-1.86,3.93-15.08,16.38-22.12,29.03-28.79-12.14,4.13-35.48,14.37-51.01,35.76,0,0,35.18,7.96,58.34-5.92,23.16-13.88,55.53-38.31,55.53-38.31,0,0-.23-.21-.8-.59-12.9,4.29-24.88,13.85-35.44,20.98Z"/><path class="cls-1" d="M86.16,199.88c-.33-.15-.66-.3-1-.44,6.5,5.84,12.35,12.9,18.81,24.26,0,0-5.47,1.65-14.37-2.22-10.03-4.36-11.63-6.2-21.21-11.66,4.98,5.77,10.51,11.79,15.42,16.22,13.01,11.73,33.06,7.07,33.06,7.07-9.56-21.42-26.82-31.23-30.72-33.23Z"/><path class="cls-14" d="M150.06,5.67s16.12,9.1,19.31,30.59c3.09,20.82-8.11,29.32-8.11,29.32-15.06-9.34-23.35-25.44-21.79-39.59,1.62-14.74,10.59-20.33,10.59-20.33M150.06,0c-1.04,0-2.08.29-3,.86-.46.29-11.32,7.24-13.22,24.52-1.84,16.73,7.98,34.82,24.44,45.03.92.57,1.95.85,2.99.85,1.21,0,2.42-.39,3.43-1.15.57-.43,13.83-10.8,10.29-34.67-3.55-23.95-21.38-34.27-22.13-34.69-.87-.49-1.83-.73-2.79-.73h0Z"/><path class="cls-11" d="M161.26,65.58c-15.06-9.34-23.35-25.44-21.79-39.59,1.62-14.74,10.59-20.33,10.59-20.33,0,0,16.12,9.1,19.31,30.59,3.09,20.82-8.11,29.32-8.11,29.32Z"/><path class="cls-1" d="M169.37,36.26c-1.59-10.71-6.39-18.34-10.81-23.3.13.35.18.73.37,1.05,3.5,5.88,8.85,24.17,2.39,38.42-.84,1.86-3.74-8.73-4.32-7.28-.97,2.43-.22,8.94-.87,8.91-4.8-.26-10.92-6.02-13.78-10.21,3.54,8.4,10.04,16.25,18.9,21.74,0,0,11.2-8.5,8.11-29.32Z"/><path class="cls-14" d="M161.8,67.99c-2.36-2.87-5.21-9.79-7.2-21.38-.81-4.74-1.83-11.62-2.26-16.03-.26-2.64.33-3.55,1.42-.99,1.66,3.91,3.44,11.12,5.97,17.76,3.6,9.47,3.73,20.1,3.73,20.1l-1.66.52Z"/></g></g></g></svg>